<svg xmlns="http://www.w3.org/2000/svg" width="165" height="200" viewBox="0 0 43.66 52.92">
  <path fill="#f7cfbe" d="M28.28 52.42H14.82l.44-5.1s-7.5-6-6.8-11.07c.32-2.3 1.93-3.43 2.2-3.82.4-.63.1-3.83.63-7.1.6-4.03 3-4.82 5.3-4.2 2.3.64 1.9 2.55 1.9 2.55s1.5-2.18 3.8-1.74c2 .38 2.1 2.62 2.1 2.62s1.6-1.78 3.4-1.16c2.7.9 2 3.9 2 3.9s3.62-3 4.92.7c1.3 3.77-.6 6.2-.93 9.12-.9 7.9-5.4 10.54-5.4 10.54z"/>
  <path fill="none" stroke="#eb9073" stroke-width=".99" d="M18.9 159.4H5.5l.43-5.06s-7.46-5.97-6.77-11.03c.3-2.3 1.92-3.4 2.18-3.8.42-.6.1-3.8.63-7 .64-4 3.05-4.8 5.32-4.2 2.2.7 1.9 2.6 1.9 2.6s1.4-2.12 3.7-1.7c2 .38 2.1 2.6 2.1 2.6s1.52-1.75 3.3-1.14c2.7.95 2 3.9 2 3.9s3.6-3 4.9.8c1.3 3.75-.58 6.17-.9 9.1-.9 7.85-5.45 10.5-5.45 10.5z" stroke-linecap="round" stroke-linejoin="round" transform="matrix(1.00376 0 0 1.00382 9.31 -107.604)"/>
  <path fill="none" stroke="#eb9073" stroke-width=".99" d="M8.7 131.32s-3.33 9.14-.15 9.73c3.6.66 4.84-1.17 4.95-2.6.15-1.87 1.4-7.02 1.4-7.02s-3.37 10.68.15 11.17c3.66.5 3.5-2.62 4-4.02.5-1.4 1.24-5.1 1.24-5.1l-2 7.45c-.8 2.95 4.7 6.18 5.7-1.7l.6-.25" stroke-linecap="round" stroke-linejoin="round" transform="matrix(1.00376 0 0 1.00382 9.31 -107.604)"/>
  <g stroke-width=".76">
    <path fill="#f7cfbe" d="M15.5 39.53s1.1-2.28 2.82-2.47c8.38-.96 6.3-7.95.45-7.06C10.1 31.33 8.6 35.2 8.6 35.2"/>
    <path fill="none" stroke="#eb9073" stroke-width="2.86" d="M35.8 99.13s3.22-6.5 8.15-7.07c24.13-2.75 18.15-22.8 1.3-20.24-25.02 3.8-29.33 14.9-29.33 14.9" stroke-linecap="round" stroke-linejoin="round" transform="matrix(.34712 0 0 .3488 3.063 4.95)"/>
  </g>
</svg>
