<svg xmlns="http://www.w3.org/2000/svg" width="165" height="200" viewBox="0 0 43.66 52.92">
  <path fill="#f7cfbe" d="M27.48 52.42H14.02l.43-5.1s-5.4-6.7-4.66-11.78c.95-6.67.92-10.24.92-10.24s.48-14.54.97-18.48c.57-4.65 5.93-4.8 5.93 0 0 6.7.1 8.77 0 10.1-.15 1.9.14 6 .14 6s1.45-2.18 3.77-1.74c2 .38 2.17 2.62 2.17 2.62s1.56-1.78 3.33-1.17c2.73.95 2.03 3.93 2.03 3.93s2.87-1.64 4.17 2.14c1.3 3.78.52 5.66-.17 8.52-1.3 5.38-5.45 10.55-5.45 10.55z"/>
  <path fill="none" stroke="#eb9073" stroke-width=".99" d="M56.17 168.45h-13.4l.42-5.07s-5.4-6.7-4.67-11.75c.97-6.65.94-10.2.94-10.2s.46-14.48.95-18.4c.58-4.64 5.9-4.78 5.9 0 0 6.66.1 8.72 0 10.05-.13 1.9.16 6 .16 6s1.44-2.2 3.75-1.75c1.98.37 2.16 2.6 2.16 2.6s1.54-1.77 3.3-1.15c2.73.93 2.03 3.9 2.03 3.9s2.86-1.63 4.16 2.14c1.3 3.76.52 5.63-.17 8.48-1.3 5.36-5.43 10.5-5.43 10.5z" stroke-linecap="round" stroke-linejoin="round" transform="matrix(1.00376 0 0 1.00382 -28.9 -116.672)"/>
  <path fill="none" stroke="#eb9073" stroke-width=".99" d="M46.66 138.72s-4.04 9.43-1.02 10.6c3.03 1.14 3.9-2.2 4.47-3.5.6-1.3 2.34-5.9 2.34-5.9s-4.76 9.4-1.3 10.7c3.46 1.3 3.46-1.3 4.18-2.62.73-1.3 2.46-5.3 2.46-5.3s-3.08 6.37-3.2 7.8c-.18 2.1 2.37 2.85 3.38 1.98 1-.87 2.16-3.76 2.16-3.76l.98-.72" stroke-linecap="round" stroke-linejoin="round" transform="matrix(1.00376 0 0 1.00382 -28.9 -116.672)"/>
  <g stroke-width=".76">
    <path fill="#f7cfbe" d="M15.08 39.53s1.14-2.2 2.83-2.47c5.7-.95 6.26-7.54.4-6.64-8.7 1.33-8.3 5.5-8.3 5.5"/>
    <path fill="none" stroke="#eb9073" stroke-width="2.86" d="M144.7 125.13s3.27-6.26 8.16-7.07c16.32-2.72 17.93-21.6 1.1-19.04C128.9 102.82 130 114.8 130 114.8" stroke-linecap="round" stroke-linejoin="round" transform="matrix(.34712 0 0 .3488 -35.146 -4.12)"/>
  </g>
</svg>
