<svg xmlns="http://www.w3.org/2000/svg" width="165" height="200" viewBox="0 0 43.66 52.92">
  <path fill="#f7cfbe" d="M27.48 52.42H14.02l.44-5.1s-5.4-6.7-4.67-11.78c.9-6.67.9-10.24.9-10.24s-.8-13.47-.9-17.44c-.1-4.84 5.3-5.56 5.8-.8.7 6.32 1.7 18.3 1.7 18.3.93-2.37 4.2-15.3 4.9-18.3 1.3-5.18 6.5-3.64 6.02.15-.73 5.8-4.66 16.6-4.66 16.6s1.55-1.7 3.32-1.1c2.7 1 2 3.9 2 3.9s2.86-1.6 4.16 2.2c1.3 3.8.5 5.7-.18 8.57-1.3 5.38-5.47 10.55-5.47 10.55z"/>
  <path fill="none" stroke="#eb9073" stroke-width=".99" d="M94.32 168.45h-13.4l.43-5.07s-5.4-6.7-4.65-11.75c.98-6.64.94-10.2.94-10.2s-.8-13.42-.86-17.37c-.1-4.82 5.27-5.54 5.8-.8.72 6.3 1.76 18.24 1.76 18.24.93-2.37 4.17-15.24 4.9-18.23 1.25-5.17 6.46-3.63 5.98.14-.73 5.8-4.65 16.6-4.65 16.6s1.55-1.8 3.32-1.1c2.7.96 2 3.9 2 3.9s2.8-1.6 4.1 2.17c1.3 3.76.5 5.63-.2 8.48-1.3 5.4-5.5 10.5-5.5 10.5z" stroke-linecap="round" stroke-linejoin="round" transform="matrix(1.00376 0 0 1.00382 -67.197 -116.672)"/>
  <path fill="none" stroke="#eb9073" stroke-width=".99" d="M90.57 139.94s-4.76 9.37-1.3 10.67c3.46 1.3 3.46-1.3 4.18-2.6.73-1.3 2.46-5.3 2.46-5.3s-3 6.4-3.2 7.8c-.1 2.1 2.4 2.9 3.4 2 1-.8 2.2-3.7 2.2-3.7l1-.7" stroke-linecap="round" stroke-linejoin="round" transform="matrix(1.00376 0 0 1.00382 -67.197 -116.672)"/>
  <g stroke-width=".76">
    <path fill="#f7cfbe" d="M15.08 39.53s1.14-2.2 2.83-2.47c5.7-.95 6.3-7.53.4-6.64-8.7 1.33-8.3 5.5-8.3 5.5"/>
    <path fill="none" stroke="#eb9073" stroke-width="2.86" d="M255.03 125.13s3.27-6.26 8.16-7.07c16.3-2.72 17.9-21.6 1-19.04-25.1 3.8-24 15.77-24 15.77" stroke-linecap="round" stroke-linejoin="round" transform="matrix(.34712 0 0 .3488 -73.444 -4.12)"/>
  </g>
</svg>
