<svg xmlns="http://www.w3.org/2000/svg" width="165" height="200" viewBox="0 0 43.66 52.92">
  <path fill="#f7cfbe" d="M26.85 52.42H13.4l.43-5.1s-5.4-6.7-4.66-11.78c.97-6.67 1.66-9.12 1.66-9.12S9.53 12.12 9.1 8.16c-.56-5.3 5.72-5.58 5.84-.78.1 4.1 2.05 17.13 2.05 17.13 1.1.7 1.9-16.5 2.7-19.5 1.2-5.1 5.5-3.5 5.3.3-.2 2.6-1.6 19.46-1.6 19.46.4-.52 6-14.72 7-16.32 1.56-2.53 4.8-.5 3.93 2.23-1.75 5.5-6 16-6 16s2.87-1.64 4.17 2.14c1.3 3.8.55 5.67-.15 8.53-1.27 5.33-5.4 10.5-5.4 10.5z"/>
  <path fill="none" stroke="#eb9073" stroke-width=".99" d="M130.42 168.45h-13.4l.43-5.07s-5.4-6.7-4.65-11.75c.98-6.64 1.66-9.1 1.66-9.1s-1.3-14.24-1.7-18.17c-.58-5.3 5.67-5.56 5.8-.78.1 4.1 2.04 17.07 2.04 17.07 1.18.66 1.97-16.44 2.7-19.43 1.25-5.17 5.56-3.57 5.33.23-.16 2.6-1.58 19.35-1.58 19.35.42-.53 6-14.68 7-16.28 1.57-2.53 4.8-.5 3.93 2.22-1.74 5.48-5.97 15.95-5.97 15.95s2.9-1.7 4.2 2.1c1.3 3.7.5 5.6-.1 8.5-1.3 5.3-5.42 10.5-5.42 10.5z" stroke-linecap="round" stroke-linejoin="round" transform="matrix(1.00376 0 0 1.00382 -104.062 -116.672)"/>
  <path fill="none" stroke="#eb9073" stroke-width=".99" d="M132.04 142.56s-4.1 7.58-3.36 8.8c1.1 1.8 3.02 1.83 3.92.85 1.36-1.4 3.45-5.4 3.45-5.4" stroke-linecap="round" stroke-linejoin="round" transform="matrix(1.00376 0 0 1.00382 -104.062 -116.672)"/>
  <g stroke-width=".76">
    <path fill="#f7cfbe" d="M11.17 35.6s2.3-2.76 4.4-3.65c2.13-.9 5.07-1.17 8.2-2.32 3.5-1.3 3.74 2.32 2.06 4.28-1.13 1.4-5.7 2.6-5.7 2.6s2.07.8 2.6 3.7c.38 2.2-.92 4.1-.92 4.1"/>
    <path fill="none" stroke="#eb9073" stroke-width="2.86" d="M349.98 113.88s6.64-7.9 12.7-10.46c6.1-2.58 14.57-3.37 23.56-6.68 10.1-3.7 10.8 6.68 5.95 12.28-3.3 3.75-16.5 7.47-16.5 7.47s6 2.2 7.5 10.4c1.1 6.2-2.6 11.6-2.6 11.6" stroke-linecap="round" stroke-linejoin="round" transform="matrix(.34712 0 0 .3488 -110.31 -4.12)"/>
  </g>
</svg>
