<svg xmlns="http://www.w3.org/2000/svg" width="165" height="200" viewBox="0 0 43.66 52.92">
  <path fill="#f7cfbe" d="M28.17 52.42H13.35l-.4-5.1s-2.85-6.26-2.83-8.8c.04-5.02.27-13.22.27-13.22s-.4-13.8-.2-17.76c.3-5.53 5.2-5.5 5.2-.72 0 6.7-.1 13.75 0 15.08.26 2.6 1.2 1.2 1.2 1.2s.6-17.46 1.04-19.78c.66-3.34 5.3-4.32 5.2.44-.1 5.64-1.7 19.63-.5 19.63s1.7-13.4 1.92-16c.2-2.6 4-2.8 3.92.4-.14 6.5-.77 16.8-.77 16.8s.75 1.1 1.2-.88c.33-1.46.65-6.78 1.17-10.3.4-2.75 3.24-2.74 3.53 1.4.23 3.14-.3 7.85-.3 10.72 0 1.82.34 11.17-.24 13.8-1.2 5.4-4.6 8.3-4.6 8.3z"/>
  <path fill="none" stroke="#eb9073" stroke-width=".99" d="M173.24 168.45h-14.76l-.4-5.1s-2.83-6.22-2.82-8.76c.04-5 .27-13.2.27-13.2s-.32-13.8-.1-17.7c.28-5.5 5.2-5.5 5.2-.7 0 6.6-.1 13.7.04 15 .26 2.6 1.17 1.2 1.17 1.2s.6-17.4 1.07-19.7c.7-3.4 5.3-4.3 5.2.4-.1 5.6-1.6 19.5-.5 19.5 1.2 0 1.7-13.3 2-15.9.2-2.6 4-2.8 3.9.4-.1 6.5-.72 16.8-.72 16.8s.76 1.1 1.2-.84c.33-1.45.65-6.76 1.16-10.26.4-2.73 3.24-2.72 3.53 1.4.2 3.13-.3 7.8-.3 10.68 0 1.8.34 11.13-.24 13.75-1.2 5.4-4.6 8.23-4.6 8.23z" stroke-linecap="round" stroke-linejoin="round" transform="matrix(1.00376 0 0 1.00382 -145.726 -116.672)"/>
  <g stroke-width=".76">
    <path fill="#f7cfbe" d="M10.75 34.8s1.62-2.35 2.08-2.6c2.33-1.3 5.45-2.16 7.78-1.83 1 .13 6.1 1.7 7.3 2.1 1.2.38.5 4.42-2.7 4.3-1.9-.1-6.1-.14-6.1-.14s.8.4 1.3 2.2c.5 1.84.4 4.57.4 4.57"/>
    <path fill="none" stroke="#eb9073" stroke-width="2.86" d="M468.8 111.6s4.66-6.76 5.97-7.48c6.72-3.74 15.72-6.2 22.4-5.23 2.63.3 17.57 4.8 20.94 5.9 3.4 1.1 1.5 12.7-7.8 12.3-5.5-.27-17.5-.4-17.5-.4s2.28 1.1 3.78 6.32 1.1 13.1 1.1 13.1" stroke-linecap="round" stroke-linejoin="round" transform="matrix(.34712 0 0 .3488 -151.973 -4.12)"/>
  </g>
</svg>
