<svg xmlns="http://www.w3.org/2000/svg" width="165" height="200" viewBox="0 0 43.66 52.92">
  <path fill="#f7cfbe" d="M38.85 13.8c-1.53 3.7-3.54 11.92-5.16 10.65-.9-.67 2.1-9.84 2.7-16.35.3-4.18-3.7-3.63-4.4-1.1-.8 2.93-3.2 15.8-3.7 15.8-1.26 0 .04-14.97.02-19.04-.03-4.4-4.74-3.85-5.2-.44-.34 2.38-1.33 19.54-1.78 19.6-1.2.1-3.6-12.1-4-15.1-.66-4.78-5.7-4.44-5.27 1.02.3 3.96 2.7 14.85 2.7 14.85s.94 7.4-.4 8.6C12.4 34.1 7.37 29 4 28.8 1.58 28.6-.9 31 1.34 33c1.03.9 7.63 5.2 10.97 8.64 1.36 2.83 5.4 5.1 5.4 5.1l.6 5.55h14.2l.15-4.67s2.3-1.8 4.8-6.73c.85-1.7 1.7-9.44 1.7-11.64 0-1.62 2.72-11.54 3.66-14.53 1-3.2-2.6-4.46-4-1"/>
  <path fill="none" stroke="#eb9073" stroke-width=".99" d="M274.32 129.67c-1.53 3.67-3.53 11.87-5.15 10.6-.86-.67 2.14-9.8 2.7-16.3.36-4.15-3.65-3.6-4.32-1.07-.78 2.9-3.15 15.74-3.6 15.74-1.27 0 .03-14.92 0-18.98-.02-4.38-4.7-3.83-5.18-.43-.33 2.36-1.3 19.46-1.76 19.5-1.2.12-3.5-12.05-3.9-15-.6-4.8-5.6-4.44-5.2 1 .3 3.94 2.7 14.8 2.7 14.8s.96 7.4-.4 8.63c-1.94 1.78-6.96-3.26-10.3-3.5-2.45-.15-4.9 2.25-2.7 4.23 1.03.9 7.6 5.2 10.93 8.6 1.3 2.8 5.35 5 5.35 5l.6 5.5h14.1l.16-4.65s2.3-1.8 4.8-6.73c.86-1.7 1.7-9.4 1.7-11.6 0-1.64 2.7-11.5 3.65-14.5 1-3.17-2.6-4.43-4.03-1z" stroke-linecap="round" stroke-linejoin="round" transform="matrix(1.00376 0 0 1.00382 -236.494 -116.36)"/>
  <g stroke-width=".76">
    <path fill="#f7cfbe" d="M14.83 32.17s3.8 0 6.48 1.5c2.7 1.5 4.8 4.8 4.8 4.8"/>
    <path fill="none" stroke="#eb9073" stroke-width="2.86" d="M742.03 103.15s10.9 0 18.65 4.3c7.75 4.3 13.77 13.78 13.77 13.78" stroke-linecap="round" stroke-linejoin="round" transform="matrix(.34712 0 0 .3488 -242.74 -3.807)"/>
  </g>
</svg>
