<svg xmlns="http://www.w3.org/2000/svg" width="80" height="100" viewBox="0 0 21.17 26.46">
  <g fill="#00f000" stroke-width="1.17">
    <path d="M20.32 13.27c.28-1.54-.1-2.73-2.8-2.92-2.2-.16-5.32.55-5.96-1.16-.44-1.2 1.7-5-.1-7.7C10.13-.6 7.7.8 7.6 2.4c-.1 1.5-1.14 6.9-1.76 7.54-1.3 1.4-2.12 3.55-2.12 3.55H.78v10.3l3.86.2s6.32 2.8 12.14 1.6c3.36-.7.94-3.3.94-3.3s1.3.3 1.76-1.58c.3-1.2-.8-2.4-.8-2.4s1.4-.17 1.5-1.5c.18-2.4-1.62-2.4-1.62-2.4s1.47.3 1.76-1.24"/>
    <path stroke="#4d4e4c" stroke-width="1.16" d="M86.98 248.57c.33-1.8-.1-3.2-3.26-3.42-2.54-.18-6.2.65-6.94-1.34-.5-1.3 1.97-5.7-.12-8.9-1.54-2.4-4.38-.76-4.5 1.03-.1 1.8-1.32 8.07-2.04 8.84-1.5 1.64-2.47 4.15-2.47 4.15h-3.43V261l4.5.24s7.37 3.24 14.14 1.85c3.92-.8 1.1-3.87 1.1-3.87s1.5.35 2.04-1.8c.36-1.44-.94-2.85-.94-2.85s1.64-.2 1.76-1.78c.2-2.78-1.88-2.8-1.88-2.8s1.7.4 2.04-1.44z" stroke-linecap="round" stroke-linejoin="round" transform="matrix(.8584 0 0 .8553 -54.35 -199.33)"/>
    <path d="M18.56 14.45s-4.94-.6-6.03.26c-1.87 1.5.5 3.2 1.44 3.2 1.24 0 4.7.58 4.7.58s-7.18-1.62-7.3.7c-.12 1.96 1.9 2.17 2.86 2.4.95.28 3.18.7 3.18.7s-3.8-.84-4.7-1c-2-.33-3.74 3 1.46 3.45l.44.44"/>
    <path stroke="#4d4e4c" stroke-width="4.38" d="M702.53 533.18s-21.73-2.65-26.5 1.18c-8.28 6.6 2.2 13.96 6.33 13.93 5.45-.1 20.67 2.3 20.67 2.3s-31.62-7.2-32.2 3.1c-.48 8.6 8.48 9.5 12.66 10.64 4.1 1.13 14 3.03 14 3.03s-16.9-3.76-21-4.45c-8.78-1.5-16.6 13.2 6.3 15.22l1.9 1.93" stroke-linecap="round" stroke-linejoin="round" transform="matrix(.227 0 0 .2263 -141 -106.21)"/>
    <path d="M18.54 10.53s-4.94-.6-6.02.27c-1.88 1.5-.54 3.13 1.32 3.38"/>
    <path stroke="#4d4e4c" stroke-width="4.38" d="M702.46 515.88s-21.74-2.66-26.52 1.17c-8.26 6.6-2.38 13.85 5.84 14.98" stroke-linecap="round" stroke-linejoin="round" transform="matrix(.227 0 0 .2263 -141 -106.21)"/>
  </g>
</svg>
