<svg xmlns="http://www.w3.org/2000/svg" width="80" height="100" viewBox="0 0 21.17 26.46">
  <g fill="#ff6565" stroke-width="1.17">
    <path d="M20.32 13.2c.28 1.54-.1 2.72-2.8 2.92-2.2.15-5.32-.55-5.96 1.15-.44 1.16 1.7 4.9-.1 7.7-1.33 2.02-3.77.63-3.86-.9-.1-1.53-1.14-6.9-1.76-7.56-1.3-1.4-2.12-3.53-2.12-3.53H.78V2.6l3.86-.2S11.3-.4 16.78.8c3.35.72.94 3.3.94 3.3s1.3-.3 1.75 1.55c.3 1.2-.8 2.42-.8 2.42s1.4.15 1.5 1.5c.2 2.37-1.6 2.4-1.6 2.4s1.46-.33 1.75 1.23"/>
    <path stroke="#4d4e4c" stroke-width="1.16" d="M117.3 248.57c.32-1.8-.12-3.2-3.27-3.42-2.54-.18-6.2.64-6.94-1.34-.5-1.34 1.95-5.73-.14-8.97-1.54-2.38-4.38-.76-4.5 1.03-.1 1.8-1.32 8.07-2.04 8.84-1.5 1.63-2.47 4.14-2.47 4.14h-3.43v12.1l4.5.25s7.77 3.24 14.14 1.85c3.9-.85 1.1-3.84 1.1-3.84s1.5.34 2.04-1.82c.37-1.43-.93-2.84-.93-2.84s1.64-.18 1.76-1.75c.22-2.78-1.88-2.8-1.88-2.8s1.7.4 2.04-1.44z" stroke-linecap="round" stroke-linejoin="round" transform="matrix(.8584 0 0 -.8553 -80.368 225.79)"/>
  </g>
</svg>
